<svg width="440" height="94" viewBox="0 0 440 94" fill="none" xmlns="http://www.w3.org/2000/svg">
<path d="M90.3256 40.7058V15.5691H95.1596L103.685 34.6414L112.035 15.5691H116.693V40.7058H112.386V23.198L105.566 40.7058H101.593L94.6322 23.198V40.7058H90.3256ZM124.55 40.7058H119.769L130.439 15.5691H135.449L146.347 40.7058H141.337L138.472 33.8504H130.122L131.722 29.8074H136.785L132.829 20.368L124.55 40.7058ZM148.984 39.6512V35.4324C151.503 36.3699 154.351 36.8387 157.527 36.8387C161.382 36.8387 163.31 35.5496 163.31 32.9715C163.31 31.0965 162.126 30.159 159.759 30.159H155.822C150.677 30.159 148.105 27.8152 148.105 23.1277C148.105 17.9715 151.767 15.3933 159.091 15.3933C161.904 15.3933 164.57 15.8035 167.089 16.6238V20.8426C164.57 19.9051 161.904 19.4363 159.091 19.4363C154.872 19.4363 152.763 20.6668 152.763 23.1277C152.763 25.0027 153.783 25.9402 155.822 25.9402H159.759C165.232 25.9402 167.968 28.284 167.968 32.9715C167.968 38.2449 164.488 40.8816 157.527 40.8816C154.351 40.8816 151.503 40.4715 148.984 39.6512ZM188.359 15.5691V19.6121H181.152V40.7058H176.494V19.6121H169.287V15.5691H188.359ZM208.222 15.5691V19.5769H195.636V25.9051H207.624V30.0711H195.583V36.6629H208.468V40.7058H191.013V15.5691H208.222ZM212.775 40.6707V15.5691H224.201C229.333 15.5691 231.9 17.8133 231.9 22.3015C231.9 25.3367 229.902 27.8504 225.906 29.8426L233.869 40.7058H227.997L220.351 29.7547V27.6277C224.804 26.866 227.031 25.1375 227.031 22.4422C227.031 20.5906 225.988 19.6648 223.902 19.6648H217.521V40.6707H212.775ZM246.578 40.7058H241.796L252.466 15.5691H257.476L268.374 40.7058H263.365L260.499 33.8504H252.15L253.749 29.8074H258.812L254.857 20.368L246.578 40.7058ZM291.49 39.6512C289.322 40.4715 286.861 40.8816 284.107 40.8816C275.083 40.8816 270.572 36.5164 270.572 27.7859C270.572 19.5242 275.083 15.3933 284.107 15.3933C286.861 15.3933 289.322 15.8035 291.49 16.6238V20.8426C289.322 19.9051 286.978 19.4363 284.458 19.4363C278.423 19.4363 275.406 22.2195 275.406 27.7859C275.406 33.8211 278.423 36.8387 284.458 36.8387C286.978 36.8387 289.322 36.3699 291.49 35.4324V39.6512ZM298.468 40.7058H293.687L304.357 15.5691H309.367L320.265 40.7058H315.255L312.39 33.8504H304.04L305.64 29.8074H310.703L306.747 20.368L298.468 40.7058ZM333.185 36.6629C338.4 36.6629 341.007 33.5926 341.007 27.4519C341.007 22.2254 338.4 19.6121 333.185 19.6121H327.999V36.6629H333.185ZM323.341 40.7058V15.5691H333.185C341.505 15.5691 345.665 19.5301 345.665 27.4519C345.665 36.2879 341.505 40.7058 333.185 40.7058H323.341ZM366.847 15.5691V19.5769H354.261V25.9051H366.249V30.0711H354.208V36.6629H367.093V40.7058H349.638V15.5691H366.847ZM371.4 40.7058V15.5691H376.234L384.759 34.6414L393.109 15.5691H397.767V40.7058H393.46V23.198L386.64 40.7058H382.667L375.706 23.198V40.7058H371.4ZM400.843 15.5691H405.853L412.919 27.6805L419.564 15.5691H424.398L415.152 31.9168V40.7058H410.494V31.9168L400.843 15.5691Z" fill="#343D8C"/>
<path d="M177.564 66.7058V54.4012H178.443L178.572 55.948C179.829 54.9168 181.193 54.4012 182.662 54.4012C184.599 54.4012 185.853 54.9637 186.423 56.0887C187.837 54.9637 189.271 54.4012 190.724 54.4012C193.474 54.4012 194.849 55.7644 194.849 58.491V66.7058H193.619V58.491C193.619 56.4988 192.65 55.5027 190.712 55.5027C189.165 55.5027 187.888 56.034 186.88 57.0965V66.7058H185.65V58.2918C185.65 56.4324 184.65 55.5027 182.65 55.5027C181.197 55.5027 179.912 56.034 178.794 57.0965V66.7058H177.564ZM197.908 63.2254C197.908 60.7801 199.533 59.5574 202.783 59.5574C203.931 59.5574 205.158 59.6355 206.462 59.7918V58.2801C206.462 56.3972 205.279 55.4558 202.912 55.4558C201.646 55.4558 200.349 55.6512 199.021 56.0418V54.9871C200.349 54.5965 201.646 54.4012 202.912 54.4012C206.099 54.4012 207.693 55.6746 207.693 58.2215V66.7058H206.943L206.662 65.4871C205.122 66.2996 203.63 66.7058 202.185 66.7058C199.333 66.7058 197.908 65.5457 197.908 63.2254ZM202.783 60.6121C200.353 60.6121 199.138 61.4715 199.138 63.1902C199.138 64.8308 200.154 65.6512 202.185 65.6512C203.685 65.6512 205.111 65.2527 206.462 64.4558V60.8465C205.158 60.6902 203.931 60.6121 202.783 60.6121ZM211.22 66.1199V64.948C212.587 65.4168 213.931 65.6512 215.251 65.6512C217.837 65.6512 219.13 64.8308 219.13 63.1902C219.13 61.8621 218.173 61.198 216.259 61.198H214.689C212.111 61.198 210.822 60.1043 210.822 57.9168C210.822 55.573 212.529 54.4012 215.943 54.4012C217.255 54.4012 218.595 54.5965 219.962 54.9871V56.159C218.595 55.6902 217.255 55.4558 215.943 55.4558C213.349 55.4558 212.052 56.2762 212.052 57.9168C212.052 59.323 212.931 60.0262 214.689 60.0262H216.259C218.994 60.0262 220.361 61.0808 220.361 63.1902C220.361 65.534 218.658 66.7058 215.251 66.7058C213.931 66.7058 212.587 66.5105 211.22 66.1199ZM223.478 52.409H224.345L224.568 54.4012H228.259V55.4558H224.673V63.2254C224.673 64.8426 225.267 65.6512 226.454 65.6512H228.259V66.7058H226.478C224.478 66.7058 223.478 65.6004 223.478 63.3894V52.409ZM235.841 54.4012C239.208 54.4012 240.892 56.2644 240.892 59.991C240.892 60.2566 240.884 60.534 240.869 60.823H231.529C231.529 64.0418 233.232 65.6512 236.638 65.6512C238.037 65.6512 239.279 65.4558 240.365 65.0652V66.1199C239.279 66.5105 238.037 66.7058 236.638 66.7058C232.412 66.7058 230.298 64.6082 230.298 60.4129C230.298 56.4051 232.146 54.4012 235.841 54.4012ZM231.529 59.7215H239.708C239.662 56.8621 238.372 55.4324 235.841 55.4324C233.107 55.4324 231.669 56.8621 231.529 59.7215ZM244.056 66.7058V54.4012H244.935L245.087 56.4402C246.322 55.0808 247.697 54.4012 249.212 54.4012V55.3855C247.744 55.3855 246.435 56.1004 245.287 57.5301V66.7058H244.056ZM259.185 49.948V66.7058H257.954V49.948H259.185ZM274.372 49.948V51.0027H268.63V66.7058H267.4V51.0027H261.775V49.948H274.372ZM281.064 54.4012H282.318L284.966 65.2176L288.869 54.4012H289.771L293.779 64.9832L296.486 54.4012H297.693L294.482 66.7058H293.204L289.326 56.2176L285.505 66.7058H284.181L281.064 54.4012ZM301.865 49.948V51.3543H300.4V49.948H301.865ZM301.747 54.4012V66.7058H300.517V54.4012H301.747ZM305.697 52.409H306.564L306.787 54.4012H310.478V55.4558H306.892V63.2254C306.892 64.8426 307.486 65.6512 308.673 65.6512H310.478V66.7058H308.697C306.697 66.7058 305.697 65.6004 305.697 63.3894V52.409ZM313.103 66.7058V49.948H314.333V55.7371C315.771 54.8465 317.244 54.4012 318.751 54.4012C321.744 54.4012 323.24 55.9285 323.24 58.9832V66.7058H322.009V58.4793C322.009 56.4949 320.904 55.5027 318.693 55.5027C317.216 55.5027 315.763 56.0222 314.333 57.0613V66.7058H313.103ZM332.861 66.7058V54.4012H333.74L333.869 55.948C335.126 54.9168 336.49 54.4012 337.958 54.4012C339.896 54.4012 341.15 54.9637 341.72 56.0887C343.134 54.9637 344.568 54.4012 346.021 54.4012C348.771 54.4012 350.146 55.7644 350.146 58.491V66.7058H348.915V58.491C348.915 56.4988 347.947 55.5027 346.009 55.5027C344.462 55.5027 343.185 56.034 342.177 57.0965V66.7058H340.947V58.2918C340.947 56.4324 339.947 55.5027 337.947 55.5027C336.494 55.5027 335.208 56.034 334.091 57.0965V66.7058H332.861ZM353.204 63.2254C353.204 60.7801 354.829 59.5574 358.079 59.5574C359.228 59.5574 360.454 59.6355 361.759 59.7918V58.2801C361.759 56.3972 360.576 55.4558 358.208 55.4558C356.943 55.4558 355.646 55.6512 354.318 56.0418V54.9871C355.646 54.5965 356.943 54.4012 358.208 54.4012C361.396 54.4012 362.99 55.6746 362.99 58.2215V66.7058H362.24L361.958 65.4871C360.419 66.2996 358.927 66.7058 357.482 66.7058C354.63 66.7058 353.204 65.5457 353.204 63.2254ZM358.079 60.6121C355.65 60.6121 354.435 61.4715 354.435 63.1902C354.435 64.8308 355.451 65.6512 357.482 65.6512C358.982 65.6512 360.408 65.2527 361.759 64.4558V60.8465C360.454 60.6902 359.228 60.6121 358.079 60.6121ZM366.517 66.1199V64.948C367.884 65.4168 369.228 65.6512 370.548 65.6512C373.134 65.6512 374.427 64.8308 374.427 63.1902C374.427 61.8621 373.47 61.198 371.556 61.198H369.986C367.408 61.198 366.119 60.1043 366.119 57.9168C366.119 55.573 367.826 54.4012 371.24 54.4012C372.552 54.4012 373.892 54.5965 375.259 54.9871V56.159C373.892 55.6902 372.552 55.4558 371.24 55.4558C368.646 55.4558 367.349 56.2762 367.349 57.9168C367.349 59.323 368.228 60.0262 369.986 60.0262H371.556C374.29 60.0262 375.658 61.0808 375.658 63.1902C375.658 65.534 373.954 66.7058 370.548 66.7058C369.228 66.7058 367.884 66.5105 366.517 66.1199ZM378.775 52.409H379.642L379.865 54.4012H383.556V55.4558H379.97V63.2254C379.97 64.8426 380.564 65.6512 381.751 65.6512H383.556V66.7058H381.775C379.775 66.7058 378.775 65.6004 378.775 63.3894V52.409ZM391.138 54.4012C394.505 54.4012 396.189 56.2644 396.189 59.991C396.189 60.2566 396.181 60.534 396.165 60.823H386.826C386.826 64.0418 388.529 65.6512 391.935 65.6512C393.333 65.6512 394.576 65.4558 395.662 65.0652V66.1199C394.576 66.5105 393.333 66.7058 391.935 66.7058C387.708 66.7058 385.595 64.6082 385.595 60.4129C385.595 56.4051 387.443 54.4012 391.138 54.4012ZM386.826 59.7215H395.005C394.958 56.8621 393.669 55.4324 391.138 55.4324C388.404 55.4324 386.966 56.8621 386.826 59.7215ZM399.353 66.7058V54.4012H400.232L400.384 56.4402C401.619 55.0808 402.994 54.4012 404.509 54.4012V55.3855C403.04 55.3855 401.732 56.1004 400.583 57.5301V66.7058H399.353ZM406.572 66.1199V64.948C407.939 65.4168 409.283 65.6512 410.603 65.6512C413.189 65.6512 414.482 64.8308 414.482 63.1902C414.482 61.8621 413.525 61.198 411.611 61.198H410.04C407.462 61.198 406.173 60.1043 406.173 57.9168C406.173 55.573 407.88 54.4012 411.294 54.4012C412.607 54.4012 413.947 54.5965 415.314 54.9871V56.159C413.947 55.6902 412.607 55.4558 411.294 55.4558C408.701 55.4558 407.404 56.2762 407.404 57.9168C407.404 59.323 408.283 60.0262 410.04 60.0262H411.611C414.345 60.0262 415.712 61.0808 415.712 63.1902C415.712 65.534 414.009 66.7058 410.603 66.7058C409.283 66.7058 407.939 66.5105 406.572 66.1199Z" fill="#343D8C"/>
<path d="M57.8428 11.4074L96.0629 77.8576L16.1873 75.7598L57.8428 11.4074Z" fill="#82C9E8"/>
<path d="M69.1988 13.2223L88.7226 87.352L12.1718 64.4504L69.1988 13.2223Z" fill="#E882DE"/>
<path d="M44.5975 36.5395L78.8719 52.0995L46.7864 74.1168L44.5975 36.5395Z" fill="white"/>
</svg>
